<svg xmlns="http://www.w3.org/2000/svg" xmlns:xlink="http://www.w3.org/1999/xlink" width="266" zoomAndPan="magnify" viewBox="0 0 199.5 54.75" height="73" preserveAspectRatio="xMidYMid meet" version="1.0"><defs><g/><clipPath id="id1"><path d="M 29.648438 10 L 65 10 L 65 45.28125 L 29.648438 45.28125 Z M 29.648438 10 " clip-rule="nonzero"/></clipPath></defs><g fill="#ff00ff" fill-opacity="1"><g transform="translate(68.110969, 44.120695)"><g><path d="M 17.957031 -18.492188 C 19.625 -19.191406 20.71875 -20.84375 20.71875 -22.882812 C 20.71875 -27.707031 16.039062 -29.5625 11.214844 -29.5625 C 11.132812 -29.5625 0.84375 -29.5625 0.84375 -29.5625 C 0.84375 -29.5625 2.410156 -29.292969 2.410156 -26.410156 L 2.410156 -3.152344 C 2.410156 -0.246094 0.84375 0 0.84375 0 L 9.378906 -0.0195312 C 23.417969 -0.0195312 26.574219 -4.289062 26.574219 -9.402344 C 26.574219 -14.367188 23.027344 -17.542969 17.957031 -18.492188 Z M 4.96875 -26.386719 C 4.96875 -28.78125 6.328125 -28.882812 6.535156 -28.882812 C 6.535156 -28.882812 11.152344 -28.902344 11.214844 -28.902344 C 15.007812 -28.902344 18.078125 -26.285156 18.078125 -22.964844 C 18.078125 -21.316406 17.316406 -19.832031 16.082031 -18.738281 C 15.585938 -18.78125 15.089844 -18.800781 14.574219 -18.800781 C 11.402344 -18.800781 7.503906 -17.441406 4.96875 -15.523438 Z M 9.234375 -1.15625 C 5.09375 -1.113281 4.949219 -1.464844 4.96875 -3.152344 L 4.96875 -13.007812 C 6.78125 -15.523438 11.089844 -17.875 14.574219 -17.875 C 19.851562 -17.875 23.75 -14.121094 23.75 -9.523438 C 23.75 -4.988281 19.996094 -1.277344 9.234375 -1.15625 Z M 9.234375 -1.15625 "/></g></g></g><g fill="#ff00ff" fill-opacity="1"><g transform="translate(102.22016, 44.120695)"><g><path d="M 23.730469 0 L 29.4375 0 C 29.4375 0 27.789062 -0.207031 26.59375 -3.152344 L 16.101562 -29.5625 L 14.203125 -29.5625 L 3.691406 -3.152344 C 2.496094 -0.207031 0.84375 0 0.84375 0 L 5.195312 0 C 5.195312 0 3.710938 -0.246094 4.886719 -3.152344 L 8.101562 -11.214844 L 20.820312 -11.214844 L 24.039062 -3.152344 C 25.210938 -0.246094 23.730469 0 23.730469 0 Z M 8.410156 -11.976562 C 8.410156 -11.976562 14.367188 -26.925781 14.429688 -27.152344 C 14.535156 -26.925781 20.511719 -11.976562 20.511719 -11.976562 Z M 8.410156 -11.976562 "/></g></g></g><g fill="#ff00ff" fill-opacity="1"><g transform="translate(139.153499, 44.120695)"><g><path d="M 7.152344 -29.5625 L 0.84375 -29.5625 C 0.84375 -29.5625 2.410156 -29.292969 2.410156 -26.410156 L 2.410156 -3.152344 C 2.410156 -0.246094 0.84375 0 0.84375 0 L 5.195312 0 C 5.195312 0 3.628906 -0.207031 3.609375 -3.152344 L 3.609375 -26.386719 C 3.609375 -26.984375 3.691406 -27.480469 3.792969 -27.871094 C 4.101562 -27.480469 4.433594 -26.984375 4.761719 -26.410156 L 19.359375 0 L 20.554688 0 L 20.554688 -26.386719 C 20.574219 -29.355469 22.140625 -29.5625 22.140625 -29.5625 L 17.792969 -29.5625 C 17.792969 -29.5625 19.378906 -29.292969 19.378906 -26.410156 L 19.378906 -4.578125 L 7.320312 -26.386719 C 5.691406 -29.355469 7.152344 -29.5625 7.152344 -29.5625 Z M 7.152344 -29.5625 "/></g></g></g><g fill="#ff00ff" fill-opacity="1"><g transform="translate(168.830635, 44.120695)"><g><path d="M 4.96875 -8.71875 L 9.132812 -13.9375 L 16.617188 -3.152344 C 18.574219 -0.207031 17.132812 0 17.132812 0 L 22.863281 0 C 22.863281 0 21.109375 -0.246094 19.171875 -3.152344 L 10.515625 -15.667969 L 19.046875 -26.386719 C 21.417969 -29.335938 23.152344 -29.542969 23.152344 -29.542969 L 18.800781 -29.542969 C 18.800781 -29.542969 20.183594 -29.292969 17.851562 -26.386719 L 4.96875 -10.203125 L 4.96875 -26.386719 C 4.988281 -29.355469 6.554688 -29.5625 6.554688 -29.5625 L 0.84375 -29.5625 C 0.84375 -29.5625 2.410156 -29.292969 2.410156 -26.410156 L 2.410156 -3.152344 C 2.410156 -0.246094 0.84375 0 0.84375 0 L 6.554688 0 C 6.554688 0 4.988281 -0.207031 4.96875 -3.152344 Z M 4.96875 -8.71875 "/></g></g></g><g fill="#00ffff" fill-opacity="1"><g transform="translate(73.253903, 45.308033)"><g><path d="M 17.957031 -18.492188 C 19.625 -19.191406 20.71875 -20.84375 20.71875 -22.882812 C 20.71875 -27.707031 16.039062 -29.5625 11.214844 -29.5625 C 11.132812 -29.5625 0.84375 -29.5625 0.84375 -29.5625 C 0.84375 -29.5625 2.410156 -29.292969 2.410156 -26.410156 L 2.410156 -3.152344 C 2.410156 -0.246094 0.84375 0 0.84375 0 L 9.378906 -0.0195312 C 23.417969 -0.0195312 26.574219 -4.289062 26.574219 -9.402344 C 26.574219 -14.367188 23.027344 -17.542969 17.957031 -18.492188 Z M 4.96875 -26.386719 C 4.96875 -28.78125 6.328125 -28.882812 6.535156 -28.882812 C 6.535156 -28.882812 11.152344 -28.902344 11.214844 -28.902344 C 15.007812 -28.902344 18.078125 -26.285156 18.078125 -22.964844 C 18.078125 -21.316406 17.316406 -19.832031 16.082031 -18.738281 C 15.585938 -18.78125 15.089844 -18.800781 14.574219 -18.800781 C 11.402344 -18.800781 7.503906 -17.441406 4.96875 -15.523438 Z M 9.234375 -1.15625 C 5.09375 -1.113281 4.949219 -1.464844 4.96875 -3.152344 L 4.96875 -13.007812 C 6.78125 -15.523438 11.089844 -17.875 14.574219 -17.875 C 19.851562 -17.875 23.75 -14.121094 23.75 -9.523438 C 23.75 -4.988281 19.996094 -1.277344 9.234375 -1.15625 Z M 9.234375 -1.15625 "/></g></g></g><g fill="#00ffff" fill-opacity="1"><g transform="translate(107.363093, 45.308033)"><g><path d="M 23.730469 0 L 29.4375 0 C 29.4375 0 27.789062 -0.207031 26.59375 -3.152344 L 16.101562 -29.5625 L 14.203125 -29.5625 L 3.691406 -3.152344 C 2.496094 -0.207031 0.84375 0 0.84375 0 L 5.195312 0 C 5.195312 0 3.710938 -0.246094 4.886719 -3.152344 L 8.101562 -11.214844 L 20.820312 -11.214844 L 24.039062 -3.152344 C 25.210938 -0.246094 23.730469 0 23.730469 0 Z M 8.410156 -11.976562 C 8.410156 -11.976562 14.367188 -26.925781 14.429688 -27.152344 C 14.535156 -26.925781 20.511719 -11.976562 20.511719 -11.976562 Z M 8.410156 -11.976562 "/></g></g></g><g fill="#00ffff" fill-opacity="1"><g transform="translate(144.296433, 45.308033)"><g><path d="M 7.152344 -29.5625 L 0.84375 -29.5625 C 0.84375 -29.5625 2.410156 -29.292969 2.410156 -26.410156 L 2.410156 -3.152344 C 2.410156 -0.246094 0.84375 0 0.84375 0 L 5.195312 0 C 5.195312 0 3.628906 -0.207031 3.609375 -3.152344 L 3.609375 -26.386719 C 3.609375 -26.984375 3.691406 -27.480469 3.792969 -27.871094 C 4.101562 -27.480469 4.433594 -26.984375 4.761719 -26.410156 L 19.359375 0 L 20.554688 0 L 20.554688 -26.386719 C 20.574219 -29.355469 22.140625 -29.5625 22.140625 -29.5625 L 17.792969 -29.5625 C 17.792969 -29.5625 19.378906 -29.292969 19.378906 -26.410156 L 19.378906 -4.578125 L 7.320312 -26.386719 C 5.691406 -29.355469 7.152344 -29.5625 7.152344 -29.5625 Z M 7.152344 -29.5625 "/></g></g></g><g fill="#00ffff" fill-opacity="1"><g transform="translate(173.973568, 45.308033)"><g><path d="M 4.96875 -8.71875 L 9.132812 -13.9375 L 16.617188 -3.152344 C 18.574219 -0.207031 17.132812 0 17.132812 0 L 22.863281 0 C 22.863281 0 21.109375 -0.246094 19.171875 -3.152344 L 10.515625 -15.667969 L 19.046875 -26.386719 C 21.417969 -29.335938 23.152344 -29.542969 23.152344 -29.542969 L 18.800781 -29.542969 C 18.800781 -29.542969 20.183594 -29.292969 17.851562 -26.386719 L 4.96875 -10.203125 L 4.96875 -26.386719 C 4.988281 -29.355469 6.554688 -29.5625 6.554688 -29.5625 L 0.84375 -29.5625 C 0.84375 -29.5625 2.410156 -29.292969 2.410156 -26.410156 L 2.410156 -3.152344 C 2.410156 -0.246094 0.84375 0 0.84375 0 L 6.554688 0 C 6.554688 0 4.988281 -0.207031 4.96875 -3.152344 Z M 4.96875 -8.71875 "/></g></g></g><g fill="#ffffff" fill-opacity="1"><g transform="translate(70.682436, 44.714364)"><g><path d="M 17.957031 -18.492188 C 19.625 -19.191406 20.71875 -20.84375 20.71875 -22.882812 C 20.71875 -27.707031 16.039062 -29.5625 11.214844 -29.5625 C 11.132812 -29.5625 0.84375 -29.5625 0.84375 -29.5625 C 0.84375 -29.5625 2.410156 -29.292969 2.410156 -26.410156 L 2.410156 -3.152344 C 2.410156 -0.246094 0.84375 0 0.84375 0 L 9.378906 -0.0195312 C 23.417969 -0.0195312 26.574219 -4.289062 26.574219 -9.402344 C 26.574219 -14.367188 23.027344 -17.542969 17.957031 -18.492188 Z M 4.96875 -26.386719 C 4.96875 -28.78125 6.328125 -28.882812 6.535156 -28.882812 C 6.535156 -28.882812 11.152344 -28.902344 11.214844 -28.902344 C 15.007812 -28.902344 18.078125 -26.285156 18.078125 -22.964844 C 18.078125 -21.316406 17.316406 -19.832031 16.082031 -18.738281 C 15.585938 -18.78125 15.089844 -18.800781 14.574219 -18.800781 C 11.402344 -18.800781 7.503906 -17.441406 4.96875 -15.523438 Z M 9.234375 -1.15625 C 5.09375 -1.113281 4.949219 -1.464844 4.96875 -3.152344 L 4.96875 -13.007812 C 6.78125 -15.523438 11.089844 -17.875 14.574219 -17.875 C 19.851562 -17.875 23.75 -14.121094 23.75 -9.523438 C 23.75 -4.988281 19.996094 -1.277344 9.234375 -1.15625 Z M 9.234375 -1.15625 "/></g></g></g><g fill="#ffffff" fill-opacity="1"><g transform="translate(104.791626, 44.714364)"><g><path d="M 23.730469 0 L 29.4375 0 C 29.4375 0 27.789062 -0.207031 26.59375 -3.152344 L 16.101562 -29.5625 L 14.203125 -29.5625 L 3.691406 -3.152344 C 2.496094 -0.207031 0.84375 0 0.84375 0 L 5.195312 0 C 5.195312 0 3.710938 -0.246094 4.886719 -3.152344 L 8.101562 -11.214844 L 20.820312 -11.214844 L 24.039062 -3.152344 C 25.210938 -0.246094 23.730469 0 23.730469 0 Z M 8.410156 -11.976562 C 8.410156 -11.976562 14.367188 -26.925781 14.429688 -27.152344 C 14.535156 -26.925781 20.511719 -11.976562 20.511719 -11.976562 Z M 8.410156 -11.976562 "/></g></g></g><g fill="#ffffff" fill-opacity="1"><g transform="translate(141.724966, 44.714364)"><g><path d="M 7.152344 -29.5625 L 0.84375 -29.5625 C 0.84375 -29.5625 2.410156 -29.292969 2.410156 -26.410156 L 2.410156 -3.152344 C 2.410156 -0.246094 0.84375 0 0.84375 0 L 5.195312 0 C 5.195312 0 3.628906 -0.207031 3.609375 -3.152344 L 3.609375 -26.386719 C 3.609375 -26.984375 3.691406 -27.480469 3.792969 -27.871094 C 4.101562 -27.480469 4.433594 -26.984375 4.761719 -26.410156 L 19.359375 0 L 20.554688 0 L 20.554688 -26.386719 C 20.574219 -29.355469 22.140625 -29.5625 22.140625 -29.5625 L 17.792969 -29.5625 C 17.792969 -29.5625 19.378906 -29.292969 19.378906 -26.410156 L 19.378906 -4.578125 L 7.320312 -26.386719 C 5.691406 -29.355469 7.152344 -29.5625 7.152344 -29.5625 Z M 7.152344 -29.5625 "/></g></g></g><g fill="#ffffff" fill-opacity="1"><g transform="translate(171.402101, 44.714364)"><g><path d="M 4.96875 -8.71875 L 9.132812 -13.9375 L 16.617188 -3.152344 C 18.574219 -0.207031 17.132812 0 17.132812 0 L 22.863281 0 C 22.863281 0 21.109375 -0.246094 19.171875 -3.152344 L 10.515625 -15.667969 L 19.046875 -26.386719 C 21.417969 -29.335938 23.152344 -29.542969 23.152344 -29.542969 L 18.800781 -29.542969 C 18.800781 -29.542969 20.183594 -29.292969 17.851562 -26.386719 L 4.96875 -10.203125 L 4.96875 -26.386719 C 4.988281 -29.355469 6.554688 -29.5625 6.554688 -29.5625 L 0.84375 -29.5625 C 0.84375 -29.5625 2.410156 -29.292969 2.410156 -26.410156 L 2.410156 -3.152344 C 2.410156 -0.246094 0.84375 0 0.84375 0 L 6.554688 0 C 6.554688 0 4.988281 -0.207031 4.96875 -3.152344 Z M 4.96875 -8.71875 "/></g></g></g><path fill="#ffffff" d="M 45.917969 28.851562 L 45.917969 37.257812 C 45.480469 37.128906 45.074219 36.9375 44.699219 36.675781 C 44.328125 36.417969 44.003906 36.105469 43.730469 35.742188 C 43.457031 35.378906 43.246094 34.980469 43.101562 34.550781 C 42.957031 34.121094 42.886719 33.675781 42.886719 33.222656 C 42.886719 32.949219 42.789062 32.71875 42.597656 32.527344 C 42.40625 32.335938 42.171875 32.238281 41.902344 32.238281 C 41.628906 32.238281 41.398438 32.335938 41.207031 32.527344 C 41.015625 32.71875 40.917969 32.949219 40.917969 33.222656 C 40.917969 33.9375 41.039062 34.632812 41.28125 35.308594 C 41.523438 35.984375 41.871094 36.597656 42.328125 37.152344 C 42.785156 37.707031 43.320312 38.164062 43.9375 38.53125 C 44.554688 38.898438 45.214844 39.148438 45.917969 39.285156 L 45.917969 41.335938 C 45.917969 41.605469 46.011719 41.839844 46.207031 42.03125 C 46.398438 42.222656 46.628906 42.320312 46.898438 42.320312 C 47.171875 42.320312 47.402344 42.222656 47.59375 42.03125 C 47.789062 41.839844 47.882812 41.605469 47.882812 41.335938 L 47.882812 39.332031 C 48.25 39.285156 48.613281 39.203125 48.96875 39.089844 C 49.320312 38.980469 49.664062 38.835938 49.992188 38.660156 C 50.320312 38.488281 50.628906 38.285156 50.921875 38.054688 C 51.214844 37.824219 51.480469 37.570312 51.726562 37.292969 C 51.972656 37.011719 52.191406 36.714844 52.382812 36.394531 C 52.574219 36.078125 52.738281 35.746094 52.867188 35.398438 C 53 35.050781 53.097656 34.691406 53.164062 34.328125 C 53.230469 33.960938 53.265625 33.59375 53.265625 33.222656 C 53.265625 32.851562 53.230469 32.480469 53.164062 32.117188 C 53.097656 31.75 53 31.394531 52.867188 31.046875 C 52.738281 30.699219 52.574219 30.363281 52.382812 30.046875 C 52.191406 29.726562 51.972656 29.429688 51.726562 29.152344 C 51.480469 28.871094 51.214844 28.617188 50.921875 28.386719 C 50.628906 28.15625 50.320312 27.953125 49.992188 27.78125 C 49.664062 27.605469 49.320312 27.464844 48.96875 27.351562 C 48.613281 27.238281 48.25 27.160156 47.882812 27.113281 L 47.882812 18.707031 C 48.320312 18.835938 48.726562 19.027344 49.097656 19.289062 C 49.472656 19.546875 49.796875 19.859375 50.070312 20.222656 C 50.34375 20.585938 50.554688 20.984375 50.699219 21.414062 C 50.84375 21.84375 50.914062 22.289062 50.914062 22.742188 C 50.914062 23.015625 51.011719 23.246094 51.203125 23.4375 C 51.394531 23.628906 51.628906 23.726562 51.898438 23.726562 C 52.171875 23.726562 52.402344 23.628906 52.59375 23.4375 C 52.785156 23.246094 52.882812 23.015625 52.882812 22.742188 C 52.882812 22.027344 52.761719 21.332031 52.519531 20.65625 C 52.277344 19.980469 51.929688 19.367188 51.472656 18.8125 C 51.015625 18.257812 50.480469 17.800781 49.863281 17.433594 C 49.246094 17.066406 48.585938 16.816406 47.882812 16.679688 L 47.882812 14.640625 C 47.882812 14.367188 47.789062 14.136719 47.59375 13.945312 C 47.402344 13.753906 47.171875 13.65625 46.898438 13.65625 C 46.628906 13.65625 46.398438 13.753906 46.207031 13.945312 C 46.011719 14.136719 45.917969 14.367188 45.917969 14.640625 L 45.917969 16.632812 C 45.546875 16.679688 45.1875 16.761719 44.832031 16.875 C 44.480469 16.984375 44.136719 17.128906 43.808594 17.300781 C 43.480469 17.476562 43.171875 17.679688 42.878906 17.910156 C 42.585938 18.140625 42.320312 18.394531 42.074219 18.671875 C 41.828125 18.953125 41.609375 19.25 41.417969 19.570312 C 41.226562 19.886719 41.0625 20.21875 40.933594 20.566406 C 40.800781 20.914062 40.703125 21.273438 40.636719 21.636719 C 40.570312 22.003906 40.535156 22.371094 40.535156 22.742188 C 40.535156 23.113281 40.570312 23.484375 40.636719 23.847656 C 40.703125 24.214844 40.800781 24.570312 40.933594 24.917969 C 41.0625 25.265625 41.226562 25.601562 41.417969 25.917969 C 41.609375 26.238281 41.828125 26.535156 42.074219 26.8125 C 42.320312 27.09375 42.585938 27.347656 42.878906 27.578125 C 43.171875 27.808594 43.480469 28.011719 43.808594 28.183594 C 44.136719 28.359375 44.480469 28.5 44.832031 28.613281 C 45.1875 28.726562 45.546875 28.804688 45.917969 28.851562 Z M 51.285156 33.222656 C 51.285156 33.707031 51.203125 34.183594 51.035156 34.640625 C 50.871094 35.101562 50.632812 35.515625 50.324219 35.894531 C 50.011719 36.269531 49.648438 36.582031 49.230469 36.832031 C 48.8125 37.082031 48.363281 37.25 47.882812 37.34375 L 47.882812 29.101562 C 48.363281 29.195312 48.808594 29.367188 49.230469 29.617188 C 49.648438 29.863281 50.011719 30.175781 50.324219 30.550781 C 50.632812 30.929688 50.871094 31.34375 51.035156 31.804688 C 51.199219 32.261719 51.285156 32.734375 51.285156 33.222656 Z M 45.917969 18.644531 L 45.917969 26.863281 C 45.445312 26.761719 45.003906 26.589844 44.589844 26.339844 C 44.179688 26.085938 43.820312 25.773438 43.519531 25.402344 C 43.214844 25.027344 42.980469 24.613281 42.820312 24.15625 C 42.65625 23.703125 42.578125 23.234375 42.578125 22.753906 C 42.578125 22.269531 42.65625 21.804688 42.820312 21.347656 C 42.980469 20.894531 43.214844 20.480469 43.519531 20.105469 C 43.820312 19.730469 44.179688 19.417969 44.589844 19.167969 C 45.003906 18.917969 45.445312 18.742188 45.917969 18.644531 Z M 45.917969 18.644531 " fill-opacity="1" fill-rule="nonzero"/><g clip-path="url(#id1)"><path fill="#ffffff" d="M 46.898438 45.257812 C 47.464844 45.257812 48.03125 45.230469 48.59375 45.175781 C 49.15625 45.117188 49.714844 45.035156 50.269531 44.925781 C 50.824219 44.816406 51.375 44.679688 51.914062 44.511719 C 52.457031 44.347656 52.988281 44.160156 53.511719 43.941406 C 54.035156 43.726562 54.542969 43.484375 55.042969 43.21875 C 55.542969 42.949219 56.027344 42.660156 56.496094 42.347656 C 56.96875 42.03125 57.421875 41.695312 57.859375 41.335938 C 58.296875 40.976562 58.714844 40.597656 59.117188 40.199219 C 59.515625 39.796875 59.894531 39.378906 60.253906 38.941406 C 60.613281 38.503906 60.949219 38.050781 61.265625 37.578125 C 61.578125 37.109375 61.867188 36.625 62.136719 36.125 C 62.402344 35.625 62.644531 35.117188 62.859375 34.59375 C 63.078125 34.070312 63.265625 33.539062 63.429688 32.996094 C 63.597656 32.457031 63.734375 31.90625 63.84375 31.351562 C 63.953125 30.796875 64.035156 30.238281 64.09375 29.675781 C 64.148438 29.113281 64.175781 28.546875 64.175781 27.980469 C 64.175781 27.417969 64.148438 26.851562 64.09375 26.289062 C 64.035156 25.726562 63.953125 25.167969 63.84375 24.613281 C 63.734375 24.058594 63.597656 23.507812 63.429688 22.96875 C 63.265625 22.425781 63.078125 21.894531 62.859375 21.371094 C 62.644531 20.847656 62.402344 20.339844 62.136719 19.839844 C 61.867188 19.339844 61.578125 18.855469 61.265625 18.386719 C 60.949219 17.914062 60.613281 17.460938 60.253906 17.023438 C 59.894531 16.585938 59.515625 16.167969 59.117188 15.765625 C 58.714844 15.367188 58.296875 14.988281 57.859375 14.628906 C 57.421875 14.269531 56.96875 13.933594 56.496094 13.617188 C 56.027344 13.304688 55.542969 13.015625 55.042969 12.746094 C 54.542969 12.480469 54.035156 12.238281 53.511719 12.023438 C 52.988281 11.804688 52.457031 11.617188 51.914062 11.449219 C 51.375 11.285156 50.824219 11.148438 50.269531 11.039062 C 49.714844 10.929688 49.15625 10.847656 48.59375 10.789062 C 48.03125 10.734375 47.464844 10.707031 46.898438 10.707031 C 46.335938 10.707031 45.769531 10.734375 45.207031 10.789062 C 44.644531 10.847656 44.085938 10.929688 43.53125 11.039062 C 42.976562 11.148438 42.425781 11.285156 41.886719 11.449219 C 41.34375 11.617188 40.8125 11.804688 40.289062 12.023438 C 39.765625 12.238281 39.257812 12.480469 38.757812 12.746094 C 38.257812 13.015625 37.773438 13.304688 37.304688 13.617188 C 36.832031 13.933594 36.378906 14.269531 35.941406 14.628906 C 35.503906 14.988281 35.085938 15.367188 34.683594 15.765625 C 34.285156 16.167969 33.90625 16.585938 33.546875 17.023438 C 33.1875 17.460938 32.851562 17.914062 32.535156 18.386719 C 32.222656 18.855469 31.933594 19.339844 31.664062 19.839844 C 31.398438 20.339844 31.15625 20.847656 30.941406 21.371094 C 30.722656 21.894531 30.535156 22.425781 30.371094 22.96875 C 30.203125 23.507812 30.066406 24.058594 29.957031 24.613281 C 29.847656 25.167969 29.765625 25.726562 29.707031 26.289062 C 29.652344 26.851562 29.625 27.417969 29.625 27.980469 C 29.625 28.546875 29.652344 29.113281 29.710938 29.675781 C 29.765625 30.238281 29.851562 30.796875 29.960938 31.351562 C 30.070312 31.90625 30.207031 32.453125 30.375 32.996094 C 30.539062 33.535156 30.730469 34.066406 30.945312 34.589844 C 31.164062 35.113281 31.402344 35.625 31.671875 36.121094 C 31.9375 36.621094 32.226562 37.105469 32.542969 37.574219 C 32.855469 38.046875 33.195312 38.5 33.550781 38.9375 C 33.910156 39.375 34.289062 39.792969 34.691406 40.191406 C 35.089844 40.59375 35.507812 40.972656 35.945312 41.332031 C 36.382812 41.6875 36.835938 42.027344 37.308594 42.339844 C 37.777344 42.65625 38.261719 42.945312 38.761719 43.210938 C 39.257812 43.480469 39.769531 43.71875 40.292969 43.9375 C 40.816406 44.152344 41.347656 44.34375 41.886719 44.507812 C 42.429688 44.671875 42.976562 44.8125 43.53125 44.921875 C 44.085938 45.03125 44.644531 45.117188 45.207031 45.171875 C 45.769531 45.226562 46.335938 45.257812 46.898438 45.257812 Z M 46.898438 12.671875 C 47.90625 12.671875 48.902344 12.769531 49.886719 12.96875 C 50.871094 13.164062 51.832031 13.453125 52.757812 13.839844 C 53.6875 14.222656 54.570312 14.695312 55.40625 15.253906 C 56.242188 15.8125 57.015625 16.445312 57.726562 17.15625 C 58.4375 17.867188 59.070312 18.640625 59.628906 19.476562 C 60.1875 20.3125 60.660156 21.195312 61.042969 22.125 C 61.429688 23.050781 61.71875 24.011719 61.914062 24.996094 C 62.113281 25.980469 62.210938 26.976562 62.210938 27.980469 C 62.210938 28.988281 62.113281 29.984375 61.914062 30.96875 C 61.71875 31.953125 61.429688 32.914062 61.042969 33.839844 C 60.660156 34.769531 60.1875 35.652344 59.628906 36.488281 C 59.070312 37.324219 58.4375 38.097656 57.726562 38.808594 C 57.015625 39.519531 56.242188 40.152344 55.40625 40.710938 C 54.570312 41.269531 53.6875 41.742188 52.757812 42.125 C 51.832031 42.511719 50.871094 42.800781 49.886719 42.996094 C 48.902344 43.195312 47.90625 43.292969 46.898438 43.292969 C 45.894531 43.292969 44.898438 43.195312 43.914062 42.996094 C 42.929688 42.800781 41.96875 42.511719 41.042969 42.125 C 40.113281 41.742188 39.230469 41.269531 38.394531 40.710938 C 37.558594 40.152344 36.785156 39.519531 36.074219 38.808594 C 35.363281 38.097656 34.730469 37.324219 34.171875 36.488281 C 33.613281 35.652344 33.140625 34.769531 32.757812 33.839844 C 32.371094 32.914062 32.082031 31.953125 31.886719 30.96875 C 31.6875 29.984375 31.589844 28.988281 31.589844 27.980469 C 31.59375 26.976562 31.691406 25.980469 31.886719 24.996094 C 32.085938 24.011719 32.375 23.054688 32.761719 22.125 C 33.144531 21.199219 33.617188 20.316406 34.175781 19.480469 C 34.734375 18.644531 35.367188 17.871094 36.078125 17.160156 C 36.789062 16.449219 37.5625 15.816406 38.398438 15.257812 C 39.234375 14.699219 40.117188 14.226562 41.042969 13.84375 C 41.972656 13.457031 42.929688 13.167969 43.914062 12.96875 C 44.898438 12.773438 45.894531 12.675781 46.898438 12.671875 Z M 46.898438 12.671875 " fill-opacity="1" fill-rule="nonzero"/></g><g fill="#ff00ff" fill-opacity="1"><g transform="translate(1.110645, 43.418538)"><g><path d="M 22.769531 0 L 22.769531 -4.28125 C 22.769531 -4.28125 21.8125 -1.347656 13.863281 -1.347656 C 8.234375 -1.347656 6.148438 -1.347656 6.148438 -1.347656 C 5.28125 -1.347656 5.234375 -2.457031 5.234375 -3.324219 L 5.234375 -27.808594 C 5.257812 -30.9375 6.910156 -31.15625 6.910156 -31.15625 L 0.890625 -31.15625 C 0.890625 -31.15625 2.542969 -30.875 2.542969 -27.832031 L 2.542969 -3.324219 C 2.542969 -0.261719 0.890625 0 0.890625 0 Z M 22.769531 0 "/></g></g></g><g fill="#00ffff" fill-opacity="1"><g transform="translate(6.530393, 44.669785)"><g><path d="M 22.769531 0 L 22.769531 -4.28125 C 22.769531 -4.28125 21.8125 -1.347656 13.863281 -1.347656 C 8.234375 -1.347656 6.148438 -1.347656 6.148438 -1.347656 C 5.28125 -1.347656 5.234375 -2.457031 5.234375 -3.324219 L 5.234375 -27.808594 C 5.257812 -30.9375 6.910156 -31.15625 6.910156 -31.15625 L 0.890625 -31.15625 C 0.890625 -31.15625 2.542969 -30.875 2.542969 -27.832031 L 2.542969 -3.324219 C 2.542969 -0.261719 0.890625 0 0.890625 0 Z M 22.769531 0 "/></g></g></g><g fill="#ffffff" fill-opacity="1"><g transform="translate(3.820519, 44.044161)"><g><path d="M 22.769531 0 L 22.769531 -4.28125 C 22.769531 -4.28125 21.8125 -1.347656 13.863281 -1.347656 C 8.234375 -1.347656 6.148438 -1.347656 6.148438 -1.347656 C 5.28125 -1.347656 5.234375 -2.457031 5.234375 -3.324219 L 5.234375 -27.808594 C 5.257812 -30.9375 6.910156 -31.15625 6.910156 -31.15625 L 0.890625 -31.15625 C 0.890625 -31.15625 2.542969 -30.875 2.542969 -27.832031 L 2.542969 -3.324219 C 2.542969 -0.261719 0.890625 0 0.890625 0 Z M 22.769531 0 "/></g></g></g></svg>